Coordinates
version=1
nRows=22
nColumns=24
inDegrees=yes

Units are S.I. units (second, meters, Newtons, ...)
Angles are in degrees.

endheader
time	pelvis_tilt	pelvis_list	pelvis_rotation	pelvis_tx	pelvis_ty	pelvis_tz	hip_flexion_r	hip_adduction_r	hip_rotation_r	knee_angle_r	ankle_angle_r	subtalar_angle_r	mtp_angle_r	hip_flexion_l	hip_adduction_l	hip_rotation_l	knee_angle_l	ankle_angle_l	subtalar_angle_l	mtp_angle_l	lumbar_extension	lumbar_bending	lumbar_rotation
      4.57000000	    -15.29536858	     -7.27769694	     -0.21612275	     -1.61682434	     -0.02307591	     -0.28973230	     24.99253213	     10.77281763	     -6.97802614	    -24.80005973	      9.36407165	    -12.06119156	     -0.81252455	     34.19039041	     -9.94347324	     -2.64778904	    -64.51937757	     -6.13721648	     -7.27676644	     25.00946516	     21.28121498	      6.26976361	    -13.43846038
      4.57500000	    -15.34191745	     -6.91745484	     -0.31934571	     -1.61108404	     -0.02187849	     -0.28929618	     24.28421604	     10.53024014	     -6.67121690	    -24.22436772	      9.42576139	    -11.97212967	     -1.04985457	     34.82613806	     -9.57579729	     -2.94066144	    -63.75671843	     -5.68603176	     -7.34385362	     24.82227342	     21.22961138	      5.93603767	    -13.13541814
      4.58000000	    -15.37586474	     -6.56180935	     -0.45402226	     -1.60535799	     -0.02075577	     -0.28883641	     23.56316641	     10.30123188	     -6.31442114	    -23.64897901	      9.51595347	    -11.85717204	     -1.29268890	     35.42067617	     -9.25326061	     -3.30344384	    -62.93700786	     -5.27948728	     -7.46807333	     24.56646645	     21.15884997	      5.62132899	    -12.81612379
      4.58500000	    -15.38147898	     -6.22807384	     -0.61933347	     -1.59965504	     -0.01970458	     -0.28836504	     22.81447804	     10.09956597	     -5.92493534	    -23.07864931	      9.63918838	    -11.69172858	     -1.62526340	     35.96335956	     -8.99143044	     -3.72473165	    -62.07471657	     -4.89415072	     -7.62054687	     24.17724826	     21.04974606	      5.34117616	    -12.47571388
      4.59000000	    -15.44428176	     -5.87728488	     -0.73267941	     -1.59398218	     -0.01874764	     -0.28793077	     22.15084623	      9.84710801	     -5.65144931	    -22.52560331	      9.70685527	    -11.59099417	     -1.86388763	     36.55270392	     -8.68210871	     -4.09322909	    -61.13013935	     -4.56552510	     -7.71267892	     23.86697137	     21.00855204	      5.02038522	    -12.17992385
      4.59500000	    -15.45896787	     -5.55544493	     -0.89362848	     -1.58831614	     -0.01785161	     -0.28748946	     21.42641576	      9.63670591	     -5.29288543	    -21.96369464	      9.83129984	    -11.40589482	     -2.19209837	     37.06709904	     -8.45526818	     -4.54640504	    -60.15493406	     -4.25583307	     -7.81744325	     23.41135424	     20.90704361	      4.74985429	    -11.86862431
      4.60000000	    -15.51989655	     -5.22311763	     -1.03208537	     -1.58270134	     -0.01709108	     -0.28708743	     20.78303978	      9.39390752	     -5.01383392	    -21.43809173	      9.94536650	    -11.26929860	     -2.41286108	     37.61005489	     -8.19991113	     -4.97024838	    -59.10584782	     -3.93637534	     -7.89312398	     23.06283578	     20.85210050	      4.46073479	    -11.55446827
      4.60500000	    -15.58697416	     -4.89397354	     -1.16514719	     -1.57709928	     -0.01638441	     -0.28669838	     20.15638703	      9.14216615	     -4.78523974	    -20.91593654	     10.02343756	    -11.14162585	     -2.57680401	     38.13668848	     -7.95823491	     -5.40694920	    -57.99136778	     -3.66463955	     -7.90991890	     22.77009869	     20.80433218	      4.17079428	    -11.24762035
      4.61000000	    -15.64867782	     -4.57659852	     -1.30442047	     -1.57150770	     -0.01576955	     -0.28632797	     19.52807251	      8.89794214	     -4.54328888	    -20.39686721	     10.13182525	    -10.99374131	     -2.70919439	     38.63447468	     -7.74093626	     -5.86269124	    -56.82592309	     -3.39039289	     -7.88725011	     22.48780694	     20.74833648	      3.89650821	    -10.94881540
      4.61500000	    -15.71051630	     -4.26902639	     -1.44622648	     -1.56592945	     -0.01524280	     -0.28599020	     18.91053255	      8.65582052	     -4.32017453	    -19.89000984	     10.25827494	    -10.84337356	     -2.81150750	     39.10968047	     -7.53983629	     -6.32630790	    -55.60729108	     -3.12339259	     -7.79964725	     22.22471823	     20.69546348	      3.64171580	    -10.65676306
      4.62000000	    -15.75584183	     -3.97033561	     -1.60425314	     -1.56039087	     -0.01477414	     -0.28564277	     18.29185957	      8.41947163	     -4.09575844	    -19.40544850	     10.36735222	    -10.66036106	     -2.89492659	     39.54001095	     -7.36731831	     -6.82189986	    -54.33594178	     -2.83791787	     -7.65968653	     21.95147254	     20.61328844	      3.39316016	    -10.34195069
      4.62500000	    -15.80626610	     -3.68558362	     -1.75009052	     -1.55486057	     -0.01440158	     -0.28532912	     17.68544703	      8.18757989	     -3.89476378	    -18.92607538	     10.49431114	    -10.48590899	     -2.94937120	     39.95820686	     -7.20370994	     -7.30712929	    -53.01862671	     -2.55476499	     -7.43618996	     21.70017130	     20.53962377	      3.15623915	    -10.05118737
      4.63000000	    -15.84028583	     -3.41005680	     -1.90107580	     -1.54934420	     -0.01410537	     -0.28505153	     17.06554584	      7.95917719	     -3.67996733	    -18.45030851	     10.64581222	    -10.29879136	     -2.97526705	     40.33681609	     -7.05659823	     -7.81369805	    -51.66030559	     -2.26311641	     -7.14569767	     21.44211019	     20.44552261	      2.93689864	     -9.76677985
      4.63500000	    -15.90802323	     -3.15097560	     -2.03371487	     -1.54383532	     -0.01390662	     -0.28481782	     16.50063417	      7.73460485	     -3.53082754	    -17.99984717	     10.76522169	    -10.13696824	     -2.97492389	     40.72931282	     -6.90734388	     -8.27949504	    -50.24390237	     -1.97779552	     -6.76430872	     21.26543905	     20.38925755	      2.72689131	     -9.49799974
      4.64000000	    -15.96822557	     -2.89340278	     -2.16963721	     -1.53834250	     -0.01377366	     -0.28458259	     15.93242289	      7.50906721	     -3.38438169	    -17.55172242	     10.89463508	     -9.97227480	     -2.95424410	     41.09267108	     -6.76567109	     -8.75274711	    -48.78620742	     -1.72129774	     -6.30064596	     21.12907689	     20.32286402	      2.52113501	     -9.21095309
      4.64500000	    -16.01486742	     -2.65662541	     -2.30718133	     -1.53284312	     -0.01372313	     -0.28439346	     15.35028932	      7.29887933	     -3.22564205	    -17.10558142	     11.04688652	     -9.80403977	     -2.91556519	     41.41756364	     -6.64080298	     -9.22848794	    -47.28911836	     -1.44540719	     -5.80456153	     21.01070812	     20.24146746	      2.33571952	     -8.95572696
      4.65000000	    -16.06614200	     -2.43430801	     -2.43725389	     -1.52736084	     -0.01373753	     -0.28422289	     14.78579875	      7.09692350	     -3.08971861	    -16.67810175	     11.18064587	     -9.63453555	     -2.87127773	     41.72709506	     -6.52160605	     -9.68339633	    -45.75029326	     -1.19831696	     -5.23279008	     20.92971731	     20.16552746	      2.16105229	     -8.70284611
      4.65500000	    -16.10495350	     -2.22225064	     -2.57134296	     -1.52187102	     -0.01381319	     -0.28408741	     14.21098022	      6.89970324	     -2.95284844	    -16.25630206	     11.32500653	     -9.45935841	     -2.81854981	     41.99798225	     -6.41139524	    -10.14307349	    -44.17556684	     -0.96140998	     -4.61635667	     20.86994201	     20.07511528	      2.00529761	     -8.45627024
      4.66000000	    -16.20641508	     -2.04171823	     -2.65486734	     -1.51640761	     -0.01402483	     -0.28403986	     13.72033874	      6.72104285	     -2.85661548	    -15.86332399	     11.44446973	     -9.32042170	     -2.78693852	     42.33102461	     -6.27738442	    -10.49401316	    -42.56813363	     -0.78218083	     -3.98116651	     20.84726566	     20.04851745	      1.86022401	     -8.32069482
      4.66500000	    -16.18148172	     -1.85107809	     -2.83104329	     -1.51089022	     -0.01418531	     -0.28386095	     13.08020710	      6.54605779	     -2.71484370	    -15.44914663	     11.62306248	     -9.09928291	     -2.71875206	     42.48087179	     -6.22562001	    -11.02531524	    -40.94334787	     -0.55880261	     -3.28202126	     20.83071955	     19.89257230	      1.73311982	     -7.99964029
      4.67000000	    -16.20737292	     -1.68543719	     -2.95095808	     -1.50537818	     -0.01445857	     -0.28380084	     12.50812612	      6.37890948	     -2.62262016	    -15.05909625	     11.76968997	     -8.92111037	     -2.66823102	     42.67987106	     -6.13993425	    -11.45927353	    -39.29500320	     -0.40168917	     -2.57078555	     20.82504555	     19.78934998	      1.61668533	     -7.78544591
      4.67500000	    -16.23054896	     -1.53474341	     -3.07571847	     -1.49986271	     -0.01480157	     -0.28375364	     11.94302853	      6.22430764	     -2.53369290	    -14.68882579	     11.92250635	     -8.73328502	     -2.62170286	     42.85766240	     -6.06681159	    -11.88918837	    -37.63451979	     -0.26882796	     -1.85688855	     20.83031878	     19.68332480	      1.51562787	     -7.57636753
